# xmcd
# 
# Track frame offsets:
#   150
#   10024
#   24841
#   35935
#   47517
#   60253
#   74269
#   86316
#   98664
#   108266
#   123936
#   139252
#   152003
#   163307
#   177078
#   190971
# 
# Disc length: 2680 seconds
# 
# Revision: 2
# Processed by: cddbd v1.5.2PL0 Copyright (c) Steve Scherf et al.
# Submitted via: Synapstar 1.0 
# 
DISCID=c40a7610
DTITLE=Various Artist - CBEP451-5
DYEAR=1900
DGENRE=Country
TTITLE0=Goerge Jones - Love Bug
TTITLE1=Stonewall Jackson - B J The D J
TTITLE2=Buck Owens - I've Got A Tiger By The Tail
TTITLE3=Connie Smith - Once A Day
TTITLE4=Little Jimmy Dickens - May THe Bird Of Paradise Fly Up Your Nose
TTITLE5=Stonewall Jackson - Don't Be Angry
TTITLE6=Dave Dudley - Truck Drivin' Man
TTITLE7=Buck Owens - Together Again
TTITLE8=Roger Miller - Dang Me
TTITLE9=Lefty Frizzell - Saginaw, Michigan
TTITLE10=Jim Reeves - This Is It
TTITLE11=Flatt and Scruggs - Roll In My Sweet Baby's Arms
TTITLE12=Eddie Arnold - What's He Doing In My World
TTITLE13=Johnny Cash - Understand Your Man
TTITLE14=Charley Pride - Crystal Chandeliers
TTITLE15=George Jones - Race Is On, The
EXTD=Chartbusters MediaType: Karaoke CD+G Producer: Chartbuster
EXTT0=
EXTT1=
EXTT2=
EXTT3=
EXTT4=
EXTT5=
EXTT6=
EXTT7=
EXTT8=
EXTT9=
EXTT10=
EXTT11=
EXTT12=
EXTT13=
EXTT14=
EXTT15=
PLAYORDER=
